<?xml version="1.0" encoding="utf-8"?>
<!-- Generator: Adobe Illustrator 19.2.1, SVG Export Plug-In . SVG Version: 6.00 Build 0)  -->
<svg version="1.1" id="icon_x5F_ap" xmlns="http://www.w3.org/2000/svg" xmlns:xlink="http://www.w3.org/1999/xlink" x="0px"
	 y="0px" viewBox="0 0 44 44" style="enable-background:new 0 0 44 44;" xml:space="preserve">
<style type="text/css">
	.st0{fill:#FFFFFF;}
</style>
<path class="st0" d="M9.7,6.6c3.1-0.3,5.7,2,5.7,5.3s-2.6,5.9-5.7,6c-3,0.1-5.4-2.3-5.4-5.3C4.3,9.5,6.6,6.9,9.7,6.6z"/>
<path class="st0" d="M32.3,29.3c4,0.1,7.3,3.1,7.3,6.8c0,3.6-3.3,6.3-7.3,5.9c-3.8-0.3-6.8-3.4-6.8-6.7S28.5,29.2,32.3,29.3z"/>
<path class="st0" d="M31.7,3.1c0,0,9.2-1.1,10.2-1.2c0.8-0.1,0.7,0.6,0.7,0.6l0.2,9.2c0,0,0,1.1-0.7,0.5s-2.4-2-2.4-2s-0.4,0.4-1,1
	C35.1,14.5,5.7,42,5.7,42S5.4,42.4,5,42c-0.4-0.4-3.5-4-3.7-4.3c-0.3-0.3-0.1-0.5-0.1-0.5s28-27.6,31.2-30.8c0.6-0.6,1-0.9,1-0.9
	s-1.3-1-2.1-1.7C30.5,3.2,31.7,3.1,31.7,3.1z"/>
</svg>
