<?xml version="1.0" encoding="utf-8"?>
<!-- Generator: Adobe Illustrator 19.0.0, SVG Export Plug-In . SVG Version: 6.00 Build 0)  -->
<svg version="1.1" id="hide" xmlns="http://www.w3.org/2000/svg" xmlns:xlink="http://www.w3.org/1999/xlink" x="0px" y="0px"
	 viewBox="241 -240.6 44 44" style="enable-background:new 241 -240.6 44 44;" xml:space="preserve">
<style type="text/css">
	.st0{fill:#0000CD;}
</style>
<path class="st0" d="M271.8-215.6c1.3-1.8,1.9-3.8,1.9-6c0-0.6-0.1-1.3-0.2-2l-6.7,12C268.9-212.5,270.5-213.8,271.8-215.6z"/>
<path class="st0" d="M272.8-232.1c0,0,0-0.1,0-0.2c0-0.3-0.1-0.5-0.4-0.6c0,0-0.2-0.1-0.5-0.3c-0.3-0.2-0.5-0.3-0.7-0.4
	c-0.2-0.1-0.5-0.3-0.8-0.4c-0.3-0.2-0.5-0.3-0.7-0.4c-0.2-0.1-0.3-0.1-0.4-0.1c-0.3,0-0.5,0.1-0.7,0.4l-1.3,2.3
	c-1.4-0.3-2.9-0.4-4.3-0.4c-4.3,0-8.2,1.1-11.8,3.2c-3.6,2.2-6.6,5.1-9,8.8c-0.3,0.5-0.5,1-0.5,1.6c0,0.6,0.2,1.2,0.5,1.6
	c1.4,2.2,3.1,4.1,5,5.8c1.9,1.7,4,3.1,6.3,4.1c-0.7,1.2-1,1.9-1,2.1c0,0.3,0.1,0.5,0.4,0.7c1.9,1.1,3,1.7,3.2,1.7
	c0.3,0,0.5-0.1,0.7-0.4l1.2-2.1c1.7-3,4.2-7.5,7.5-13.5C268.6-224.6,271.1-229.1,272.8-232.1z M254.9-209.7
	c-4.1-1.9-7.5-4.8-10.2-8.9c2.4-3.7,5.4-6.5,9.1-8.4c-1,1.7-1.5,3.4-1.5,5.4c0,1.7,0.4,3.3,1.2,4.8c0.8,1.5,1.9,2.8,3.2,3.8
	L254.9-209.7z M263.8-227c-0.2,0.2-0.5,0.3-0.8,0.3c-1.4,0-2.5,0.5-3.5,1.5c-1,1-1.5,2.1-1.5,3.5c0,0.3-0.1,0.6-0.3,0.8
	c-0.2,0.2-0.5,0.3-0.8,0.3c-0.3,0-0.6-0.1-0.8-0.3c-0.2-0.2-0.3-0.5-0.3-0.8c0-2,0.7-3.7,2.1-5.1c1.4-1.4,3.1-2.1,5.1-2.1
	c0.3,0,0.6,0.1,0.8,0.3c0.2,0.2,0.3,0.5,0.3,0.8C264.1-227.5,264-227.2,263.8-227z"/>
<path class="st0" d="M283.9-220.3c-0.9-1.5-2.1-3-3.4-4.4c-1.4-1.4-2.8-2.6-4.3-3.6l-1.5,2.7c2.7,1.8,4.9,4.2,6.7,7
	c-1.9,3-4.3,5.4-7.2,7.3c-2.9,1.9-6,3-9.3,3.3l-1.8,3.1c3.5,0,6.9-0.8,10-2.3c3.1-1.5,5.9-3.6,8.3-6.4c1.1-1.3,2-2.4,2.6-3.5
	c0.3-0.5,0.5-1.1,0.5-1.6C284.3-219.2,284.2-219.7,283.9-220.3z"/>
</svg>
