<?xml version="1.0" encoding="utf-8"?>
<!-- Generator: Adobe Illustrator 19.2.1, SVG Export Plug-In . SVG Version: 6.00 Build 0)  -->
<svg version="1.1" id="Layer_1" xmlns="http://www.w3.org/2000/svg" xmlns:xlink="http://www.w3.org/1999/xlink" x="0px" y="0px"
	 viewBox="0 0 44 44" style="enable-background:new 0 0 44 44;" xml:space="preserve">
<style type="text/css">
	.st0{fill:#FFFFFF;}
	.st1{fill:none;stroke:#FFFFFF;stroke-width:1.25;stroke-miterlimit:10;}
	.st2{fill:none;}
</style>
<g id="Layer_1_1_">
	<g id="icon_x5F_ap">
		<path id="XMLID_18_" class="st0" d="M42,40.5H2.3c-0.6,0-1.1-0.5-1.1-1.1V4.6c0-0.6,0.5-1.1,1.1-1.1S3.4,4,3.4,4.6v33.6H42
			c0.6,0,1.1,0.5,1.1,1.1C43.1,40,42.6,40.5,42,40.5z"/>
	</g>
</g>
<g id="Layer_2_2_">
	<path class="st0" d="M40.3,8H3.9C3.8,8,3.8,8,3.8,7.9l0,0c0-0.1,0-0.1,0.1-0.1h36.4C40.4,7.8,40.4,7.8,40.3,8L40.3,8
		C40.4,8,40.4,8,40.3,8z"/>
	<path class="st0" d="M40.3,15H3.9c-0.1,0-0.1,0-0.1-0.1l0,0c0-0.1,0-0.1,0.1-0.1h36.4C40.4,14.8,40.4,14.8,40.3,15L40.3,15
		C40.4,15,40.4,15,40.3,15z"/>
	<path class="st0" d="M40.3,22H3.9c-0.1,0-0.1,0-0.1-0.1l0,0c0-0.1,0-0.1,0.1-0.1h36.4c0.1,0,0.1,0,0.1,0.1L40.3,22
		C40.4,22,40.4,22,40.3,22z"/>
	<path class="st0" d="M40.3,29H3.9c-0.1,0-0.1,0-0.1-0.1l0,0c0-0.1,0-0.1,0.1-0.1h36.4c0.1,0,0.1,0,0.1,0.1L40.3,29
		C40.4,29,40.4,29,40.3,29z"/>
	<path class="st0" d="M40.3,36H3.9c-0.1,0-0.1,0-0.1-0.1l0,0c0-0.1,0-0.1,0.1-0.1h36.4C40.4,35.8,40.4,35.8,40.3,36L40.3,36
		C40.4,36,40.4,36,40.3,36z"/>
</g>
<g id="Layer_3_1_">
	<g>
		<circle class="st0" cx="7.3" cy="33" r="2.3"/>
		<g>
			<line class="st1" x1="7.3" y1="33" x2="17.5" y2="23.9"/>
		</g>
		<circle class="st0" cx="17.5" cy="23.9" r="2.3"/>
		<g>
			<line class="st2" x1="28.4" y1="18.4" x2="17.5" y2="23.9"/>
			
				<rect x="16.8" y="20.5" transform="matrix(0.8925 -0.451 0.451 0.8925 -7.0517 12.5953)" class="st0" width="12.2" height="1.2"/>
		</g>
		<circle class="st0" cx="28.4" cy="18.4" r="2.3"/>
		<g>
			<line class="st2" x1="40" y1="20.9" x2="28.4" y2="18.4"/>
			
				<rect x="33.6" y="13.7" transform="matrix(0.2108 -0.9775 0.9775 0.2108 7.7922 48.9408)" class="st0" width="1.2" height="11.9"/>
		</g>
		<circle class="st0" cx="40" cy="20.9" r="2.3"/>
	</g>
	<g>
		<circle class="st0" cx="7.3" cy="27.6" r="2.3"/>
		<g>
			<line class="st2" x1="7.3" y1="27.6" x2="17.9" y2="15.5"/>
			
				<rect x="4.6" y="20.8" transform="matrix(0.6575 -0.7535 0.7535 0.6575 -11.8089 16.8579)" class="st0" width="16.1" height="1.3"/>
		</g>
		<circle class="st0" cx="17.9" cy="15.5" r="2.3"/>
		<g>
			<line class="st2" x1="17.5" y1="15.5" x2="28.8" y2="27.7"/>
			
				<rect x="22.5" y="13.3" transform="matrix(0.7338 -0.6794 0.6794 0.7338 -8.512 21.4793)" class="st0" width="1.3" height="16.6"/>
		</g>
		<circle class="st0" cx="28.8" cy="27.7" r="2.3"/>
		<g>
			<line class="st1" x1="38.8" y1="8.3" x2="28.8" y2="27.7"/>
		</g>
		<circle class="st0" cx="38.8" cy="8.3" r="2.3"/>
	</g>
</g>
</svg>
