<?xml version="1.0" encoding="utf-8"?>
<!-- Generator: Adobe Illustrator 19.2.1, SVG Export Plug-In . SVG Version: 6.00 Build 0)  -->
<svg version="1.1" id="Layer_1" xmlns="http://www.w3.org/2000/svg" xmlns:xlink="http://www.w3.org/1999/xlink" x="0px" y="0px"
	 viewBox="0 0 105.3 96" style="enable-background:new 0 0 105.3 96;" xml:space="preserve">
<style type="text/css">
	.st0{fill:#FFFFFF;}
</style>
<g id="Layer_1_1_">
	<path class="st0" d="M3.6,38.9l45.2-1l5,9.2l-5,7.2L3.6,53.6l4-6.8L3.6,38.9z M3.6,10.1L24.9,8l4.5,8.1l-4.5,7.4L3.6,24.8l4-7.4
		L3.6,10.1z M95.4,93.4L3.7,84.5l4-6.5l-4-8.2l91.7,5.4l6.2,10.3L95.4,93.4z"/>
</g>
<g id="Layer_2">
	<path class="st0" d="M100.7,32.8c0,0-16.9,17.1-18.7,18.8c-1.3,1.3-2.5-0.2-2.5-0.2L62,34.4c0,0-2.1-1.9,0.2-2
		c2.2-0.1,7.8-0.3,7.8-0.3s0-1.4,0-3.5c0-6.1,0-17.1,0-21.5c0,0-0.3-1.2,1.5-1.4C73.4,5.6,89,4.1,90.4,4c1.4-0.1,1.4,0.9,1.4,0.9
		c0,4.6,0,16.5,0,22.6c0,2,0,3.3,0,3.3s5-0.2,8.2-0.3S100.7,32.8,100.7,32.8z"/>
</g>
</svg>
