<?xml version="1.0" encoding="utf-8"?>
<!-- Generator: Adobe Illustrator 19.2.1, SVG Export Plug-In . SVG Version: 6.00 Build 0)  -->
<svg version="1.1" id="Layer_1" xmlns="http://www.w3.org/2000/svg" xmlns:xlink="http://www.w3.org/1999/xlink" x="0px" y="0px"
	 viewBox="0 0 44 44" style="enable-background:new 0 0 44 44;" xml:space="preserve">
<style type="text/css">
	.st0{fill:#FFFFFF;}
</style>
<g id="icon_x5F_ap">
	<path id="XMLID_9_" class="st0" d="M20.2,27.4c-0.2,0.1-0.5,0.2-0.7,0.2c-0.7,0-1.1-0.4-1.4-1.1c-0.5-1.1-1.2-3.6-1.6-5.1
		c0-0.2-0.1-0.5-0.1,0v5c0,0.3-0.1,0.6-0.3,0.9c-0.1,0.1-0.4,0.4-0.4,0.7v12c0,1.3-0.8,2.3-2,2.3s-1.8-1-1.8-2.3V28.1
		c0,0,0-0.3-0.5-0.3s-0.5,0.3-0.5,0.3V40c0,1.3-0.6,2.3-1.8,2.3c-1.2,0-2-1-2-2.3V27.7c0-0.2-0.4-0.6-0.4-0.8
		c-0.1-0.2-0.1-0.4-0.1-0.6v-4.8c0-0.6-0.1-0.4-0.2,0c-0.5,1.4-1.2,3.7-1.7,4.7c-0.3,0.7-0.8,1.2-1.5,1.2c-0.2,0-0.5-0.1-0.7-0.2
		c-0.9-0.4-1-1.5-0.6-2.4c0.6-1.3,1.1-2.7,1.5-4.1c1.2-3.6,2.6-8.6,5-8.6c0.8,0,6.1,0,6.2,0c2.3,0,3.8,5,5,8.6
		c0.5,1.4,1,2.8,1.5,4.1C21.4,25.9,21.1,27,20.2,27.4z M13.3,18.8l-0.8-3.9c0-0.1,0-0.2,0-0.3c0-0.2,0.1-0.8,0.1-0.8
		c0-0.2-0.1-0.4-0.3-0.4h-1.7c-0.2,0-0.3,0.2-0.3,0.4c0,0,0,0.6,0.1,0.8c0,0,0,0.2,0,0.3l-0.8,3.9c0,0.2,0,0.5,0.2,0.6l1.5,1.4
		c0.1,0.1,0.4,0.1,0.5,0l1.5-1.4C13.3,19.3,13.4,19,13.3,18.8z M11.3,11.2c-2.5,0-4.6-2.2-4.6-4.8s2.1-4.7,4.6-4.7
		c2.6,0,4.6,2.1,4.6,4.7C16,9,13.9,11.2,11.3,11.2z"/>
</g>
<g id="Layer_2">
	<path class="st0" d="M42.2,5.3L39.8,8c-0.2,0.2-0.5,0.2-0.7,0.1l-1.8-1.4c-0.2-0.2-0.2-0.4-0.1-0.6l0.4-0.7
		c0.1-0.2,0.4-0.2,0.6-0.1l0.7,0.5c0.2,0.2,0.5,0.1,0.7-0.1l1.5-1.6c0.2-0.2,0.5-0.2,0.6,0l0.5,0.5C42.4,4.8,42.4,5.1,42.2,5.3z"/>
	<path class="st0" d="M34.9,39.3h-6.2c-1.3,0-2.4-1.1-2.4-2.4V23.2c0,0,0-0.3-0.2-0.3c-0.9,0-2.6,0-3.4,0c-0.3,0-0.3-0.3-0.3-0.3
		v-1.3c0,0,0-0.3,0.3-0.3c0.8,0,2.5,0,3.4,0c0.2,0,0.2-0.3,0.2-0.3V7.2c0-1.3,1.1-2.4,2.4-2.4c0,0,4.6,0,6.1,0
		c0.4,0,0.4,0.4,0.4,0.4v1.2c0,0,0,0.4-0.4,0.4c-1.5,0-6.2,0-6.2,0c-0.3,0-0.5,0.2-0.5,0.5v13.5c0,0,0,0.3,0.3,0.3
		c1.6,0,4.7,0,6.4,0c0.4,0,0.4,0.3,0.4,0.3v1.3c0,0,0,0.3-0.4,0.3c-1.7,0-4.8,0-6.4,0c-0.3,0-0.3,0.4-0.3,0.4v13.5
		c0,0.3,0.2,0.5,0.5,0.5h6.2c0,0,0.4,0,0.4,0.4c0,0.3,0,0.8,0,1.1C35.3,39.3,34.9,39.3,34.9,39.3z"/>
	<path class="st0" d="M39.1,20.3c0.9,0,1.7,0.8,1.7,1.7s-0.7,1.7-1.7,1.7c-0.9,0-1.7-0.8-1.7-1.7S38.2,20.3,39.1,20.3z"/>
	<path class="st0" d="M39.1,36.6c0.9,0,1.7,0.8,1.7,1.7c0,0.9-0.7,1.7-1.7,1.7c-0.9,0-1.7-0.8-1.7-1.7
		C37.4,37.4,38.2,36.6,39.1,36.6z"/>
</g>
</svg>
