<?xml version="1.0" encoding="utf-8"?>
<!-- Generator: Adobe Illustrator 19.0.0, SVG Export Plug-In . SVG Version: 6.00 Build 0)  -->
<svg version="1.1" id="Layer_1" xmlns="http://www.w3.org/2000/svg" xmlns:xlink="http://www.w3.org/1999/xlink" x="0px" y="0px"
	 viewBox="-457 259 44 44" style="enable-background:new -457 259 44 44;" xml:space="preserve">
<style type="text/css">
	.st0{display:none;}
	.st1{display:inline;}
	.st2{fill:#157DFB;}
	.st3{fill:#0000CD;}
</style>
<g id="Capa_1" class="st0">
	<g class="st1">
		<g>
			<path class="st2" d="M-418.7,271.9c1.4,0,2.7-1.2,2.7-2.6s-1.3-2.7-2.7-2.7c-1.4,0-2.6,1.3-2.6,2.7S-420.1,271.9-418.7,271.9z"/>
			<path class="st2" d="M-418.7,283.6c1.4,0,2.7-1.2,2.7-2.6c0-1.4-1.3-2.6-2.7-2.6c-1.4,0-2.6,1.2-2.6,2.6
				C-421.3,282.4-420.1,283.6-418.7,283.6z"/>
			<path class="st2" d="M-428.1,290.4h-23.4c-1.3,0-2.4,1-2.4,2.4c0,1.3,1.1,2.4,2.4,2.4h23.4c1.3,0,2.4-1.1,2.4-2.4
				C-425.7,291.4-426.8,290.4-428.1,290.4z"/>
			<path class="st2" d="M-418.7,295.4c1.4,0,2.7-1.3,2.7-2.7c0-1.4-1.3-2.6-2.7-2.6c-1.4,0-2.6,1.2-2.6,2.6
				C-421.3,294.1-420.1,295.4-418.7,295.4z"/>
			<path class="st2" d="M-451.5,283.5h23.4c1.3,0,2.4-1.1,2.4-2.4s-1.1-2.4-2.4-2.4h-23.4c-1.3,0-2.4,1.1-2.4,2.4
				C-454,282.4-452.9,283.5-451.5,283.5z"/>
			<path class="st2" d="M-451.5,271.8h23.4c1.3,0,2.4-1.1,2.4-2.4c0-1.3-1.1-2.4-2.4-2.4h-23.4c-1.3,0-2.4,1.1-2.4,2.4
				C-454,270.7-452.9,271.8-451.5,271.8z"/>
		</g>
	</g>
</g>
<g id="Layer_2">
	<path class="st3" d="M-426.6,294.2h-25.3c-0.9,0-1.6-0.7-1.6-1.6l0,0c0-0.9,0.7-1.6,1.6-1.6h25.3c0.9,0,1.6,0.7,1.6,1.6l0,0
		C-425,293.5-425.7,294.2-426.6,294.2z"/>
	<path class="st3" d="M-426.6,282.7h-25.3c-0.9,0-1.6-0.7-1.6-1.6l0,0c0-0.9,0.7-1.6,1.6-1.6h25.3c0.9,0,1.6,0.7,1.6,1.6l0,0
		C-425,282-425.7,282.7-426.6,282.7z"/>
	<path class="st3" d="M-426.6,271.2h-25.3c-0.9,0-1.6-0.7-1.6-1.6l0,0c0-0.9,0.7-1.6,1.6-1.6h25.3c0.9,0,1.6,0.7,1.6,1.6l0,0
		C-425,270.5-425.7,271.2-426.6,271.2z"/>
	<path class="st3" d="M-417.8,294.2h-0.3c-0.7,0-1.3-0.6-1.3-1.3v-0.5c0-0.7,0.6-1.3,1.3-1.3h0.3c0.7,0,1.3,0.6,1.3,1.3v0.5
		C-416.5,293.6-417.1,294.2-417.8,294.2z"/>
	<path class="st3" d="M-417.8,282.7h-0.3c-0.7,0-1.3-0.6-1.3-1.3v-0.5c0-0.7,0.6-1.3,1.3-1.3h0.3c0.7,0,1.3,0.6,1.3,1.3v0.5
		C-416.5,282.1-417.1,282.7-417.8,282.7z"/>
	<path class="st3" d="M-417.9,271.2h-0.2c-0.8,0-1.4-0.6-1.4-1.4v-0.4c0-0.8,0.6-1.4,1.4-1.4h0.2c0.8,0,1.4,0.6,1.4,1.4v0.4
		C-416.5,270.6-417.1,271.2-417.9,271.2z"/>
</g>
</svg>
