<?xml version="1.0" encoding="utf-8"?>
<!-- Generator: Adobe Illustrator 19.2.1, SVG Export Plug-In . SVG Version: 6.00 Build 0)  -->
<svg version="1.1" id="Layer_1" xmlns="http://www.w3.org/2000/svg" xmlns:xlink="http://www.w3.org/1999/xlink" x="0px" y="0px"
	 viewBox="0 0 44 44" style="enable-background:new 0 0 44 44;" xml:space="preserve">
<style type="text/css">
	.st0{fill:#599E80;}
	.st1{fill:#A5A5A5;}
	.st2{fill:#3392BC;}
	.st3{fill:none;stroke:#3392BC;stroke-width:1.25;stroke-miterlimit:10;}
	.st4{fill:none;}
	.st5{fill:#33BC71;}
	.st6{fill:none;stroke:#33BC71;stroke-width:1.25;stroke-miterlimit:10;}
</style>
<g id="Layer_1_1_">
	<g id="icon_x5F_ap">
		<path id="XMLID_18_" class="st0" d="M42,40.5H2.3c-0.6,0-1.1-0.5-1.1-1.1V4.6c0-0.6,0.5-1.1,1.1-1.1S3.4,4,3.4,4.6v33.6H42
			c0.6,0,1.1,0.5,1.1,1.1C43.1,40,42.6,40.5,42,40.5z"/>
	</g>
</g>
<g id="Layer_2_1_">
	<path class="st1" d="M41.3,7H4.9C4.8,7,4.8,7,4.8,6.9l0,0c0-0.1,0-0.1,0.1-0.1h36.4C41.4,6.8,41.4,6.8,41.3,7L41.3,7
		C41.4,7,41.4,7,41.3,7z"/>
	<path class="st1" d="M41.3,14H4.9c-0.1,0-0.1,0-0.1-0.1l0,0c0-0.1,0-0.1,0.1-0.1h36.4C41.4,13.8,41.4,13.8,41.3,14L41.3,14
		C41.4,14,41.4,14,41.3,14z"/>
	<path class="st1" d="M41.3,21H4.9c-0.1,0-0.1,0-0.1-0.1l0,0c0-0.1,0-0.1,0.1-0.1h36.4c0.1,0,0.1,0,0.1,0.1L41.3,21
		C41.4,21,41.4,21,41.3,21z"/>
	<path class="st1" d="M41.3,28H4.9c-0.1,0-0.1,0-0.1-0.1l0,0c0-0.1,0-0.1,0.1-0.1h36.4c0.1,0,0.1,0,0.1,0.1L41.3,28
		C41.4,28,41.4,28,41.3,28z"/>
	<path class="st1" d="M41.3,35H4.9c-0.1,0-0.1,0-0.1-0.1l0,0c0-0.1,0-0.1,0.1-0.1h36.4C41.4,34.8,41.4,34.8,41.3,35L41.3,35
		C41.4,35,41.4,35,41.3,35z"/>
</g>
<g id="Layer_3_1_">
	<g>
		<circle class="st2" cx="7.3" cy="28.9" r="2.3"/>
		<g>
			<line class="st3" x1="7.3" y1="28.9" x2="17.5" y2="22.2"/>
		</g>
		<circle class="st2" cx="17.5" cy="22.2" r="2.3"/>
		<g>
			<line class="st4" x1="28.4" y1="17.6" x2="17.5" y2="22.2"/>
			
				<rect x="17" y="19.2" transform="matrix(0.9219 -0.3875 0.3875 0.9219 -5.9113 10.4241)" class="st2" width="11.8" height="1.3"/>
		</g>
		<circle class="st2" cx="28.4" cy="17.6" r="2.3"/>
		<g>
			<line class="st3" x1="40" y1="7.1" x2="28.4" y2="17.6"/>
		</g>
		<circle class="st2" cx="40" cy="7.1" r="2.3"/>
	</g>
	<g>
		<circle class="st5" cx="7.3" cy="33.4" r="2.3"/>
		<g>
			<line class="st6" x1="7.3" y1="33.4" x2="17.9" y2="27.6"/>
		</g>
		<circle class="st5" cx="17.9" cy="27.6" r="2.3"/>
		<g>
			<line class="st4" x1="17.9" y1="27.6" x2="28.8" y2="27.7"/>
			
				<rect x="22.7" y="22.2" transform="matrix(9.191548e-003 -1 1 9.191548e-003 -4.5107 50.693)" class="st5" width="1.3" height="10.9"/>
		</g>
		<circle class="st5" cx="28.8" cy="27.7" r="2.3"/>
		<g>
			<line class="st6" x1="40" y1="16.8" x2="28.8" y2="27.7"/>
		</g>
		<circle class="st5" cx="40" cy="16.8" r="2.3"/>
	</g>
</g>
</svg>
