<?xml version="1.0" encoding="utf-8"?>
<!-- Generator: Adobe Illustrator 19.0.0, SVG Export Plug-In . SVG Version: 6.00 Build 0)  -->
<svg version="1.1" xmlns="http://www.w3.org/2000/svg" xmlns:xlink="http://www.w3.org/1999/xlink" x="0px" y="0px"
	 viewBox="-457 259 44 44" style="enable-background:new -457 259 44 44;" xml:space="preserve">
<style type="text/css">
	.st0{fill:#436FB5;}
	.st1{fill:#BA2267;}
</style>
<g id="icon_x5F_ap">
	<path id="XMLID_9_" class="st0" d="M-436.5,286c-0.2,0.1-0.5,0.2-0.7,0.2c-0.7,0-1.1-0.4-1.4-1.1c-0.5-1.1-1.2-3.6-1.6-5.1
		c0-0.2-0.1-0.5-0.1,0v5c0,0.3-0.1,0.6-0.3,0.9c-0.1,0.1-0.4,0.4-0.4,0.7v12c0,1.3-0.8,2.3-2,2.3s-1.8-1-1.8-2.3v-11.9
		c0,0,0-0.3-0.5-0.3s-0.5,0.3-0.5,0.3v11.9c0,1.3-0.6,2.3-1.8,2.3c-1.2,0-2-1-2-2.3v-12.3c0-0.2-0.4-0.6-0.4-0.8
		c-0.1-0.2-0.1-0.4-0.1-0.6v-4.8c0-0.6-0.1-0.4-0.2,0c-0.5,1.4-1.2,3.7-1.7,4.7c-0.3,0.7-0.8,1.2-1.5,1.2c-0.2,0-0.5-0.1-0.7-0.2
		c-0.9-0.4-1-1.5-0.6-2.4c0.6-1.3,1.1-2.7,1.5-4.1c1.2-3.6,2.6-8.6,5-8.6c0.8,0,6.1,0,6.2,0c2.3,0,3.8,5,5,8.6
		c0.5,1.4,1,2.8,1.5,4.1C-435.3,284.5-435.6,285.6-436.5,286z M-443.4,277.4l-0.8-3.9c0-0.1,0-0.2,0-0.3c0-0.2,0.1-0.8,0.1-0.8
		c0-0.2-0.1-0.4-0.3-0.4h-1.7c-0.2,0-0.3,0.2-0.3,0.4c0,0,0,0.6,0.1,0.8c0,0,0,0.2,0,0.3l-0.8,3.9c0,0.2,0,0.5,0.2,0.6l1.5,1.4
		c0.1,0.1,0.4,0.1,0.5,0l1.5-1.4C-443.4,277.9-443.3,277.6-443.4,277.4z M-445.4,269.8c-2.5,0-4.6-2.2-4.6-4.8s2.1-4.7,4.6-4.7
		c2.6,0,4.6,2.1,4.6,4.7C-440.7,267.6-442.8,269.8-445.4,269.8z"/>
</g>
<g id="Layer_2">
	<path class="st1" d="M-414.5,263.9l-2.4,2.7c-0.2,0.2-0.5,0.2-0.7,0.1l-1.8-1.4c-0.2-0.2-0.2-0.4-0.1-0.6l0.4-0.7
		c0.1-0.2,0.4-0.2,0.6-0.1l0.7,0.5c0.2,0.2,0.5,0.1,0.7-0.1l1.5-1.6c0.2-0.2,0.5-0.2,0.6,0l0.5,0.5
		C-414.3,263.4-414.3,263.7-414.5,263.9z"/>
	<path class="st1" d="M-421.8,297.9h-6.2c-1.3,0-2.4-1.1-2.4-2.4v-13.7c0,0,0-0.3-0.2-0.3c-0.9,0-2.6,0-3.4,0
		c-0.3,0-0.3-0.3-0.3-0.3v-1.3c0,0,0-0.3,0.3-0.3c0.8,0,2.5,0,3.4,0c0.2,0,0.2-0.3,0.2-0.3v-13.5c0-1.3,1.1-2.4,2.4-2.4
		c0,0,4.6,0,6.1,0c0.4,0,0.4,0.4,0.4,0.4v1.2c0,0,0,0.4-0.4,0.4c-1.5,0-6.2,0-6.2,0c-0.3,0-0.5,0.2-0.5,0.5v13.5c0,0,0,0.3,0.3,0.3
		c1.6,0,4.7,0,6.4,0c0.4,0,0.4,0.3,0.4,0.3v1.3c0,0,0,0.3-0.4,0.3c-1.7,0-4.8,0-6.4,0c-0.3,0-0.3,0.4-0.3,0.4v13.5
		c0,0.3,0.2,0.5,0.5,0.5h6.2c0,0,0.4,0,0.4,0.4c0,0.3,0,0.8,0,1.1C-421.4,297.9-421.8,297.9-421.8,297.9z"/>
	<path class="st1" d="M-417.6,278.9c0.9,0,1.7,0.8,1.7,1.7s-0.7,1.7-1.7,1.7c-0.9,0-1.7-0.8-1.7-1.7S-418.5,278.9-417.6,278.9z"/>
	<path class="st1" d="M-417.6,295.2c0.9,0,1.7,0.8,1.7,1.7c0,0.9-0.7,1.7-1.7,1.7c-0.9,0-1.7-0.8-1.7-1.7
		C-419.3,296-418.5,295.2-417.6,295.2z"/>
</g>
</svg>
