<?xml version="1.0" encoding="utf-8"?>
<!-- Generator: Adobe Illustrator 19.2.1, SVG Export Plug-In . SVG Version: 6.00 Build 0)  -->
<svg version="1.1" id="Capa_1" xmlns="http://www.w3.org/2000/svg" xmlns:xlink="http://www.w3.org/1999/xlink" x="0px" y="0px"
	 viewBox="0 0 44 44" style="enable-background:new 0 0 44 44;" xml:space="preserve">
<style type="text/css">
	.st0{fill:#0000CD;}
</style>
<path class="st0" d="M3.1,9.2h6.8c0.6,2.2,2.6,3.8,4.9,3.8s4.3-1.6,4.9-3.8h21.1c0.7,0,1.3-0.6,1.3-1.3s-0.6-1.3-1.3-1.3H19.7
	c-0.6-2.2-2.6-3.8-4.9-3.8s-4.3,1.6-4.9,3.8H3.1c-0.7,0-1.3,0.6-1.3,1.3S2.4,9.2,3.1,9.2z M14.8,5.4c1.4,0,2.5,1.1,2.5,2.5
	s-1.1,2.5-2.5,2.5s-2.5-1.1-2.5-2.5S13.4,5.4,14.8,5.4z"/>
<path class="st0" d="M40.9,20.7h-8.6c-0.6-2.2-2.6-3.8-4.9-3.8s-4.3,1.6-4.9,3.8H3.1c-0.7,0-1.3,0.6-1.3,1.3s0.6,1.3,1.3,1.3h19.3
	c0.6,2.2,2.6,3.8,4.9,3.8s4.3-1.6,4.9-3.8h8.6c0.7,0,1.3-0.6,1.3-1.3S41.6,20.7,40.9,20.7z M27.3,24.5c-1.4,0-2.5-1.1-2.5-2.5
	s1.1-2.5,2.5-2.5c1.4,0,2.5,1.1,2.5,2.5S28.7,24.5,27.3,24.5z"/>
<path class="st0" d="M40.9,34.8H19.7c-0.6-2.2-2.6-3.8-4.9-3.8s-4.3,1.6-4.9,3.8H3.1c-0.7,0-1.3,0.6-1.3,1.3s0.6,1.3,1.3,1.3h6.8
	c0.6,2.2,2.6,3.8,4.9,3.8s4.3-1.6,4.9-3.8h21.1c0.7,0,1.3-0.6,1.3-1.3S41.6,34.8,40.9,34.8z M14.8,38.6c-1.4,0-2.5-1.1-2.5-2.5
	c0-1.4,1.1-2.5,2.5-2.5s2.5,1.1,2.5,2.5C17.3,37.5,16.2,38.6,14.8,38.6z"/>
</svg>
