<?xml version="1.0" encoding="utf-8"?>
<!-- Generator: Adobe Illustrator 19.2.1, SVG Export Plug-In . SVG Version: 6.00 Build 0)  -->
<svg version="1.1" id="Layer_1" xmlns="http://www.w3.org/2000/svg" xmlns:xlink="http://www.w3.org/1999/xlink" x="0px" y="0px"
	 viewBox="0 0 44 44" style="enable-background:new 0 0 44 44;" xml:space="preserve">
<style type="text/css">
	.st0{fill:#599E80;}
	.st1{display:none;}
	.st2{display:inline;fill:#C61E1E;}
	.st3{display:inline;fill:#6A9E89;}
	.st4{fill:#A5A5A5;}
	.st5{fill:#BA3735;}
	.st6{fill:none;stroke:#BA3735;stroke-width:1.25;stroke-miterlimit:10;}
	.st7{fill:none;}
	.st8{fill:#BAC133;}
	.st9{fill:none;stroke:#BAC133;stroke-width:1.25;stroke-miterlimit:10;}
</style>
<g id="Layer_1_1_">
	<g id="icon_x5F_ap">
		<path id="XMLID_18_" class="st0" d="M42,40.5H2.3c-0.6,0-1.1-0.5-1.1-1.1V4.6c0-0.6,0.5-1.1,1.1-1.1S3.4,4,3.4,4.6v33.6H42
			c0.6,0,1.1,0.5,1.1,1.1C43.1,40,42.6,40.5,42,40.5z"/>
	</g>
	<g id="Layer_2" class="st1">
		<path class="st2" d="M37.9,22c0.4,0.8,1.1,1.3,2,1.3c1.3,0,2.3-1,2.3-2.3s-1-2.3-2.3-2.3c-1,0-1.7,0.5-2.1,1.3l-2.3-0.5l2.5-3.3
			c0.2,0.1,0.6,0.2,0.9,0.2c1.3,0,2.3-1,2.3-2.3s-1-2.3-2.3-2.3s-2.3,1-2.3,2.3c0,0.3,0,0.4,0.1,0.7H20.1c-0.3-0.9-1.2-1.5-2.2-1.5
			c-0.9,0-1.8,0.6-2.1,1.5H7.9c-0.2-0.1-0.4-0.1-0.6-0.1s-0.4,0-0.6,0.1H3.8l-0.1,0.1c0,0,0,0.1,0.1,0.1h2.4c-0.7,0.4-1.1,1.2-1.1,2
			c0,1.2,1,2.3,2.2,2.3c0.6,0,1.2-0.2,1.6-0.6l3.6,2.4l-0.7,0.8h-8c0,0-0.1,0-0.1,0.1c0,0,0,0.1,0.1,0.1h7.8l-3.1,3.5
			c-0.3-0.2-0.7-0.3-1.1-0.3c-1.3,0-2.3,1-2.3,2.3c0,0.5,0.1,0.9,0.4,1.3H3.8c0,0-0.1,0-0.1,0.1c0,0,0,0.1,0.1,0.1h1.9
			c0.4,0.5,1,0.8,1.7,0.8s1.3-0.3,1.7-0.8H27c0.4,0.5,1.1,0.9,1.8,0.9c0.7,0,1.4-0.3,1.8-0.9h9.9c0,0,0.1,0,0.1-0.1
			c0,0,0-0.1-0.1-0.1h-9.7c0.2-0.4,0.3-0.8,0.3-1.2c0-0.6-0.2-1.2-0.6-1.6l3.1-4.1C33.6,22,37.9,22,37.9,22z M39,12.5
			c0.8,0,1.4,0.7,1.4,1.5s-0.6,1.5-1.4,1.5c-0.2,0-0.3,0-0.5-0.1c-0.5-0.2-1-0.7-0.9-1.4C37.6,13.2,38.2,12.5,39,12.5z M8.7,27.6
			c0,0.8-0.6,1.5-1.4,1.5s-1.4-0.7-1.4-1.5s0.6-1.5,1.4-1.5S8.8,26.8,8.7,27.6z M37.6,21c0.1,0.3,0.1,0.6,0.1,0.8h-4l1.1-1.4
			L37.6,21z M20.3,15.6c0-0.2,0-0.4-0.1-0.6h16.7c0.1,0.2,0.2,0.3,0.3,0.5l-2.8,3.8l-3.8-0.8c0-1.3-1.1-2.3-2.3-2.3
			c-1.3,0-2.3,1-2.3,2.3c0,0.2,0.1,0.3,0.1,0.5l-3,1.5l-3.2-3.6C20.2,16.5,20.3,16.1,20.3,15.6z M22.1,21l-1.6,0.8h-2
			c-0.3-0.1-0.6-0.2-0.9-0.2s-0.6,0.1-0.9,0.2h-1.1l-1.5-1l2.8-3.2c0.3,0.2,0.7,0.3,1.1,0.3s0.8-0.1,1.1-0.3L22.1,21z M20,22
			l-0.7,0.4c-0.1-0.2-0.3-0.3-0.4-0.4H20z M16.2,22c0,0.1-0.1,0.1-0.1,0.1L15.9,22H16.2z M18,14.1c0.8,0,1.4,0.6,1.4,1.5
			c0,0.8-0.6,1.5-1.4,1.5s-1.4-0.7-1.4-1.5S17.2,14.1,18,14.1z M9.5,17.7c0.1-0.3,0.1-0.5,0.1-0.8c0-0.9-0.4-1.6-1.1-2h7.3
			c-0.1,0.2-0.1,0.4-0.1,0.6c0,0.5,0.2,1,0.5,1.4l-3,3.3L9.5,17.7z M13.6,21.8h-0.5l0.2-0.2L13.6,21.8z M26.8,28.9H9.2
			c0.3-0.4,0.4-0.8,0.4-1.3s-0.1-0.9-0.4-1.3L13,22h1l1.4,1c-0.1,0.3-0.2,0.6-0.2,0.9c0,1.3,1,2.3,2.3,2.3s2.3-1,2.3-2.3
			c0-0.2-0.1-0.4-0.1-0.6l2.6-1.3H23l3.9,4.4c-0.3,0.4-0.4,0.8-0.4,1.3S26.6,28.6,26.8,28.9z M28.8,29.2c-0.8,0-1.5-0.7-1.4-1.5
			c0-0.8,0.6-1.5,1.4-1.5s1.4,0.7,1.4,1.5S29.6,29.2,28.8,29.2z M29.6,25.6c-0.2-0.1-0.5-0.2-0.8-0.2c-0.4,0-0.8,0.1-1.1,0.3
			l-3.2-3.6h7.8L29.6,25.6z M24.2,21.9l-0.4-0.5l2.8-1.4c0.5,0.5,1.1,0.8,1.8,0.8c0.9,0,1.6-0.5,2-1.3l3.3,0.7l-1.3,1.7
			C32.4,21.9,24.2,21.9,24.2,21.9z"/>
	</g>
	<g id="Layer_3" class="st1">
		<path class="st3" d="M17.9,13c-1.4,0-2.6,1.2-2.6,2.6s1.2,2.6,2.6,2.6s2.6-1.2,2.6-2.6C20.5,14.1,19.3,13,17.9,13z M17.9,16.8
			c-0.7,0-1.2-0.5-1.2-1.2s0.5-1.2,1.2-1.2s1.2,0.5,1.2,1.2C19.1,16.2,18.6,16.8,17.9,16.8z"/>
	</g>
</g>
<g id="Layer_2_2_">
	<path class="st4" d="M40.3,8H3.9C3.8,8,3.8,8,3.8,7.9l0,0c0-0.1,0-0.1,0.1-0.1h36.4C40.4,7.8,40.4,7.8,40.3,8L40.3,8
		C40.4,8,40.4,8,40.3,8z"/>
	<path class="st4" d="M40.3,15H3.9c-0.1,0-0.1,0-0.1-0.1l0,0c0-0.1,0-0.1,0.1-0.1h36.4C40.4,14.8,40.4,14.8,40.3,15L40.3,15
		C40.4,15,40.4,15,40.3,15z"/>
	<path class="st4" d="M40.3,22H3.9c-0.1,0-0.1,0-0.1-0.1l0,0c0-0.1,0-0.1,0.1-0.1h36.4c0.1,0,0.1,0,0.1,0.1L40.3,22
		C40.4,22,40.4,22,40.3,22z"/>
	<path class="st4" d="M40.3,29H3.9c-0.1,0-0.1,0-0.1-0.1l0,0c0-0.1,0-0.1,0.1-0.1h36.4c0.1,0,0.1,0,0.1,0.1L40.3,29
		C40.4,29,40.4,29,40.3,29z"/>
	<path class="st4" d="M40.3,36H3.9c-0.1,0-0.1,0-0.1-0.1l0,0c0-0.1,0-0.1,0.1-0.1h36.4C40.4,35.8,40.4,35.8,40.3,36L40.3,36
		C40.4,36,40.4,36,40.3,36z"/>
</g>
<g id="Layer_3_1_">
	<g>
		<circle class="st5" cx="7.3" cy="33" r="2.3"/>
		<g>
			<line class="st6" x1="7.3" y1="33" x2="17.5" y2="23.9"/>
		</g>
		<circle class="st5" cx="17.5" cy="23.9" r="2.3"/>
		<g>
			<line class="st7" x1="28.4" y1="18.4" x2="17.5" y2="23.9"/>
			<rect x="16.8" y="20.5" transform="matrix(0.8925 -0.451 0.451 0.8925 -7.0541 12.589)" class="st5" width="12.2" height="1.2"/>
		</g>
		<circle class="st5" cx="28.4" cy="18.4" r="2.3"/>
		<g>
			<line class="st7" x1="40" y1="20.9" x2="28.4" y2="18.4"/>
			
				<rect x="33.6" y="13.7" transform="matrix(0.2108 -0.9775 0.9775 0.2108 7.7889 48.9328)" class="st5" width="1.2" height="11.9"/>
		</g>
		<circle class="st5" cx="40" cy="20.9" r="2.3"/>
	</g>
	<g>
		<circle class="st8" cx="7.3" cy="27.6" r="2.3"/>
		<g>
			<line class="st7" x1="7.3" y1="27.6" x2="17.9" y2="15.5"/>
			
				<rect x="4.6" y="20.8" transform="matrix(0.6575 -0.7535 0.7535 0.6575 -11.8426 16.8459)" class="st8" width="16.1" height="1.3"/>
		</g>
		<circle class="st8" cx="17.9" cy="15.5" r="2.3"/>
		<g>
			<line class="st7" x1="17.5" y1="15.5" x2="28.8" y2="27.7"/>
			
				<rect x="22.5" y="13.3" transform="matrix(0.7338 -0.6794 0.6794 0.7338 -8.511 21.479)" class="st8" width="1.3" height="16.6"/>
		</g>
		<circle class="st8" cx="28.8" cy="27.7" r="2.3"/>
		<g>
			<line class="st9" x1="38.8" y1="8.3" x2="28.8" y2="27.7"/>
		</g>
		<circle class="st8" cx="38.8" cy="8.3" r="2.3"/>
	</g>
</g>
</svg>
