<?xml version="1.0" encoding="utf-8"?>
<!-- Generator: Adobe Illustrator 19.2.1, SVG Export Plug-In . SVG Version: 6.00 Build 0)  -->
<svg version="1.1" id="icon_x5F_ap" xmlns="http://www.w3.org/2000/svg" xmlns:xlink="http://www.w3.org/1999/xlink" x="0px"
	 y="0px" viewBox="0 0 44 44" style="enable-background:new 0 0 44 44;" xml:space="preserve">
<style type="text/css">
	.st0{fill:#169381;}
	.st1{fill:#33CC66;}
</style>
<path class="st0" d="M11,8.2c2.8-0.3,5.1,1.8,5.1,4.7s-2.3,5.3-5.1,5.4c-2.7,0.1-4.8-2.1-4.8-4.7C6.2,10.8,8.3,8.5,11,8.2z"/>
<path class="st0" d="M31.2,28.5c3.6,0.1,6.5,2.8,6.5,6.1c0,3.2-3,5.6-6.5,5.3c-3.4-0.3-6.1-3-6.1-6S27.8,28.4,31.2,28.5z"/>
<path class="st1" d="M30.7,5.1c0,0,8.2-1,9.1-1.1c0.7-0.1,0.6,0.5,0.6,0.5l0.2,8.2c0,0,0,1-0.6,0.4c-0.6-0.5-2.1-1.8-2.1-1.8
	s-0.4,0.4-0.9,0.9c-3.2,3-29.5,27.5-29.5,27.5s-0.3,0.4-0.6,0c-0.4-0.4-3.1-3.6-3.3-3.8c-0.3-0.3-0.1-0.4-0.1-0.4S28.5,10.9,31.3,8
	c0.5-0.5,0.9-0.8,0.9-0.8s-1.2-0.9-1.9-1.5C29.6,5.2,30.7,5.1,30.7,5.1z"/>
</svg>
