<?xml version="1.0" encoding="utf-8"?>
<!-- Generator: Adobe Illustrator 19.0.0, SVG Export Plug-In . SVG Version: 6.00 Build 0)  -->
<svg version="1.1" id="Capa_1" xmlns="http://www.w3.org/2000/svg" xmlns:xlink="http://www.w3.org/1999/xlink" x="0px" y="0px"
	 viewBox="-457 259 44 44" style="enable-background:new -457 259 44 44;" xml:space="preserve">
<style type="text/css">
	.st0{fill:#0000CD;}
</style>
<g>
	<path class="st0" d="M-416,261.6h-38c-1,0-1.8,0.8-1.8,1.8v4c0,1,0.8,1.8,1.8,1.8h0.3v4.5l0,0v24.4c0,1.2,1,2.2,2.2,2.2h12h8.9h12
		c1.2,0,2.2-1,2.2-2.2v-25.8v-0.2v-3h0.4c1,0,1.8-0.8,1.8-1.8v-4C-414.3,262.5-415,261.6-416,261.6z M-440.3,298.6h-11.1
		c-0.3,0-0.5-0.2-0.5-0.5v-5.6h11.7L-440.3,298.6L-440.3,298.6z M-431.4,298.6h-7.2V283c0-0.1,0.1-0.1,0.1-0.1h6.8
		c0.1,0,0.1,0.1,0.1,0.1L-431.4,298.6L-431.4,298.6z M-418.1,298c0,0.3-0.2,0.5-0.5,0.5h-11V293h11.6L-418.1,298L-418.1,298z
		 M-418.1,291.4h-11.5v-8.5c0-1-0.8-1.9-1.9-1.9h-6.9c-1,0-1.9,0.8-1.9,1.9v7.9h-11.6v-13.9l0,0c0.1,0.1,0.2,0.1,0.4,0.2h0.1
		c0.1,0,0.3,0.1,0.5,0.2l0,0c0.1,0,0.3,0.1,0.4,0.1h0.1c0.2,0,0.3,0,0.5,0c0.1,0,0.3,0,0.4,0c1-0.1,1.9-0.6,2.5-1.4
		c0.6,0.8,1.5,1.3,2.5,1.4c0.1,0,0.3,0,0.4,0s0.3,0,0.4,0c1-0.1,1.9-0.6,2.5-1.4c0.6,0.8,1.5,1.3,2.5,1.4c0.1,0,0.3,0,0.4,0
		c0.1,0,0.3,0,0.4,0c1-0.1,1.9-0.6,2.5-1.4c0.6,0.8,1.5,1.3,2.5,1.4c0.1,0,0.3,0,0.4,0s0.3,0,0.4,0c1-0.1,1.9-0.6,2.5-1.4
		c0.6,0.8,1.5,1.3,2.5,1.4c0.1,0,0.3,0,0.4,0c0.1,0,0.3,0,0.4,0c1-0.1,1.9-0.6,2.5-1.4c0.6,0.8,1.5,1.3,2.5,1.4c0.1,0,0.3,0,0.4,0
		c0.2,0,0.4,0,0.5,0h0.1c0.2,0,0.3,0,0.5-0.1l0,0c0.1,0,0.3-0.1,0.4-0.2c0,0,0,0,0.1,0c0.1-0.1,0.3-0.1,0.4-0.2l0,0v14.5H-418.1
		L-418.1,291.4L-418.1,291.4z M-451.9,273.8v-4.5h4.2v4.5c0,0.8-0.5,1.6-1.3,1.9c-0.2,0.1-0.5,0.2-0.8,0.2c-0.3,0-0.6,0-0.8-0.2
		C-451.4,275.4-451.9,274.6-451.9,273.8z M-446,273.8v-4.5h4.2v4.5c0,0.8-0.5,1.6-1.3,1.9c-0.2,0.1-0.5,0.2-0.8,0.2
		c-0.3,0-0.6,0-0.8-0.2C-445.5,275.4-446,274.6-446,273.8z M-440.1,273.8v-4.5h4.1v4.5c0,0.8-0.5,1.6-1.3,1.9
		c-0.2,0.1-0.5,0.2-0.8,0.2c-0.3,0-0.6,0-0.8-0.2C-439.6,275.4-440.1,274.6-440.1,273.8z M-434.2,273.8v-4.5h4.2v4.5
		c0,0.8-0.5,1.6-1.3,1.9c-0.2,0.1-0.5,0.2-0.8,0.2c-0.3,0-0.6,0-0.8-0.2C-433.7,275.4-434.2,274.6-434.2,273.8z M-428.3,273.8v-4.5
		h4.2v4.5c0,0.8-0.5,1.6-1.3,1.9c-0.2,0.1-0.5,0.2-0.8,0.2c-0.3,0-0.6,0-0.8-0.2C-427.7,275.4-428.3,274.6-428.3,273.8z
		 M-422.3,273.8v-4.5h4.2v2.4v2.1c0,0.8-0.5,1.6-1.3,1.9c-0.2,0.1-0.5,0.2-0.8,0.2c-0.3,0-0.6,0-0.8-0.2
		C-421.8,275.4-422.3,274.6-422.3,273.8z M-416,267.4C-416,267.5-416,267.5-416,267.4h-38v-4h38V267.4z"/>
</g>
</svg>
