<?xml version="1.0" encoding="utf-8"?>
<!-- Generator: Adobe Illustrator 19.2.1, SVG Export Plug-In . SVG Version: 6.00 Build 0)  -->
<svg version="1.1" id="Layer_1" xmlns="http://www.w3.org/2000/svg" xmlns:xlink="http://www.w3.org/1999/xlink" x="0px" y="0px"
	 viewBox="0 0 44 44" style="enable-background:new 0 0 44 44;" xml:space="preserve">
<style type="text/css">
	.st0{fill:#0000CD;}
</style>
<path class="st0" d="M35.8,37c-4.2,0-7.6-3.4-7.6-7.7c0-4.3,3.4-7.7,7.6-7.7s7.6,3.4,7.6,7.7S40,37,35.8,37z M40.5,28.9h-3.8
	c-0.1,0-0.3-0.1-0.3-0.3v-3.8c0-0.1-0.1-0.3-0.2-0.4s-0.2-0.2-0.4-0.2c-0.3,0-0.5,0.3-0.5,0.5v3.8c0,0.1-0.1,0.3-0.3,0.3h-3.8
	c-0.1,0-0.3,0.1-0.4,0.2s-0.2,0.2-0.2,0.4c0,0.3,0.2,0.5,0.5,0.5h3.8c0.1,0,0.1,0,0.2,0.1s0.1,0.1,0.1,0.2V34c0,0.3,0.2,0.5,0.5,0.5
	s0.5-0.3,0.5-0.5v-3.8c0-0.1,0.1-0.3,0.3-0.3h3.8c0.3,0,0.5-0.3,0.5-0.5C41.1,29.1,40.8,28.9,40.5,28.9z M35,15H5.8
	c-2.9,0-5.2-2.3-5.2-5.2s2.3-5.2,5.2-5.2H35c2.9,0,5.2,2.3,5.2,5.2S37.9,15,35,15z M11.6,8.4H6.9C6.1,8.4,5.5,9,5.5,9.6
	c0,0.7,0.6,1.4,1.4,1.4h4.7c0.7,0,1.4-0.6,1.4-1.4C13,9,12.3,8.4,11.6,8.4z M32.7,8c-1,0-1.7,0.8-1.7,1.7c0,1,0.8,1.7,1.7,1.7
	c1,0,1.7-0.8,1.7-1.7C34.4,8.8,33.6,8,32.7,8z M5.8,16.6H35c1.9,0,3.6,1,4.5,2.6c-1.1-0.4-2.4-0.7-3.7-0.7c-5.1,0-9.4,3.7-10.4,8.5
	H5.8c-2.9,0-5.2-2.3-5.2-5.2C0.6,19.1,2.9,16.6,5.8,16.6z M6.9,23.3h4.7c0.7,0,1.4-0.6,1.4-1.4c0-0.7-0.6-1.4-1.4-1.4H6.9
	c-0.7,0-1.4,0.6-1.4,1.4S6.1,23.3,6.9,23.3z M5.8,29h19.5c0,0.1,0,0.2,0,0.3c0,4.8,3.2,8.8,7.5,10.2h-27c-2.9,0-5.2-2.3-5.2-5.2
	C0.6,31.3,2.9,29,5.8,29z M6.9,35.6h4.7c0.7,0,1.4-0.6,1.4-1.4c0-0.7-0.6-1.4-1.4-1.4H6.9c-0.7,0-1.4,0.6-1.4,1.4S6.1,35.6,6.9,35.6
	z"/>
</svg>
