<?xml version="1.0" encoding="utf-8"?>
<!-- Generator: Adobe Illustrator 19.0.0, SVG Export Plug-In . SVG Version: 6.00 Build 0)  -->
<svg version="1.1" id="iconReport1" xmlns="http://www.w3.org/2000/svg" xmlns:xlink="http://www.w3.org/1999/xlink" x="0px"
	 y="0px" viewBox="-447 253.7 64 54.3" style="enable-background:new -447 253.7 64 54.3;" xml:space="preserve">
<style type="text/css">
	.st0{fill:#D81313;}
	.st1{fill:#26160A;}
	.st2{fill:#D71F27;}
	.st3{fill:#0A0909;}
</style>
<path id="XMLID_23_" class="st0" d="M-405.4,289.7c-0.1,1.9-0.2,3.8-0.7,5.7c-2.4,9.8-10.6,13.9-19.8,9.9c-6.6-2.9-11.3-7.9-14.8-14
	c-4.4-7.7-6.8-16-4.7-25c2.2-9.3,9.9-13.3,18.9-9.9c5,1.9,8.7,5.3,12.1,9.2c0.2,0.2,0.4,0.7,0.4,0.7c-1.4,1-2.8,1.9-4.2,2.8
	c-0.8,0.5-1.1-0.4-1.6-0.9c-1.4-1.4-2.8-2.6-4.6-3.5c-6.5-3.5-12.6-0.6-13.2,6.9c-0.8,10.2,3.1,18.4,11.4,24.4
	c1.1,0.8,2.4,1.3,3.6,1.6c4.2,1.2,7.7-0.5,9.5-4.5c1-2.2,1.2-4.6,1.2-7c0-1.2-1-2.9-0.1-3.6c1.2-1,2.9-1.3,4.5-1.9
	c0.9-0.4,0.9,0.4,1.1,0.9C-405.7,284.2-405.5,286.9-405.4,289.7z"/>
<path id="XMLID_22_" class="st1" d="M-391.8,255.3c0.6-0.1,1.2,0,1.2,0.8c0,0.6,0.1,1.2,0,1.8c-1,4.5,0.9,7.5,5,9.4
	c0.8,0.4,2.2,0.6,1.7,2.1c-0.6,0.3-1.3,0.4-1.8,0.8c-3.2,2.1-6.4,3.3-9.9,0.3c-1-0.8-1.6,0.1-2.3,0.7c-4.4,3.5-9.1,6.3-14.4,8.2
	c-3.8,1.3-7.8,0.3-11.7,1.2c-0.2-0.3-0.3-0.6,0-0.9c1.6-1.5,3.1-3.1,4.4-5c2.4-3.3,6.2-5,9.8-6.7c2.9-1.4,5.9-2.4,9-3.1
	c0.9-0.2,1.6-0.5,1.5-1.5c-0.3-4.3,2.5-6,5.9-7.3C-392.8,255.9-392.3,255.6-391.8,255.3z"/>
<path id="XMLID_21_" class="st2" d="M-423.9,281c1.1,0.4,2.2,1,3.3,1.2c2.2,0.4,2.7,1.6,2.4,3.6c-0.4,2.4-1.7,4-3.6,4.2
	c-1,0.1-1.9-0.1-2.8-0.6c-4.1-2-7.6-9.1-6.7-13.6c0.8-4.2,3.9-5.4,7.4-2.9c1,0.7,1.3,1.4,0.9,2.6c-0.5,1.4-0.8,2.8-1.2,4.2
	C-424.4,280.2-424.4,280.7-423.9,281z"/>
<path id="XMLID_20_" class="st3" d="M-423.9,281c-1.1-0.2-1.2-0.6-0.4-1.3c0.1-0.1,0.3-0.1,0.4,0c0,0.3,0,0.6,0,0.9
	C-423.9,280.8-423.9,280.9-423.9,281z"/>
</svg>
