<?xml version="1.0" encoding="utf-8"?>
<!-- Generator: Adobe Illustrator 20.1.0, SVG Export Plug-In . SVG Version: 6.00 Build 0)  -->
<svg version="1.1" id="Layer_1" xmlns="http://www.w3.org/2000/svg" xmlns:xlink="http://www.w3.org/1999/xlink" x="0px" y="0px"
	 viewBox="0 0 44 44" style="enable-background:new 0 0 44 44;" xml:space="preserve">
<style type="text/css">
	.st0{fill:#FFFFFF;}
</style>
<g id="Layer_2">
	<path class="st0" d="M30.4,35.2H5.1c-0.9,0-1.6-0.7-1.6-1.6l0,0c0-0.9,0.7-1.6,1.6-1.6h25.3c0.9,0,1.6,0.7,1.6,1.6l0,0
		C32,34.5,31.3,35.2,30.4,35.2z"/>
	<path class="st0" d="M30.4,23.7H5.1c-0.9,0-1.6-0.7-1.6-1.6l0,0c0-0.9,0.7-1.6,1.6-1.6h25.3c0.9,0,1.6,0.7,1.6,1.6l0,0
		C32,23,31.3,23.7,30.4,23.7z"/>
	<path class="st0" d="M30.4,12.2H5.1c-0.9,0-1.6-0.7-1.6-1.6l0,0C3.5,9.7,4.2,9,5.1,9h25.3c0.9,0,1.6,0.7,1.6,1.6l0,0
		C32,11.5,31.3,12.2,30.4,12.2z"/>
	<path class="st0" d="M39.2,35.2h-0.3c-0.7,0-1.3-0.6-1.3-1.3v-0.5c0-0.7,0.6-1.3,1.3-1.3h0.3c0.7,0,1.3,0.6,1.3,1.3v0.5
		C40.5,34.6,39.9,35.2,39.2,35.2z"/>
	<path class="st0" d="M39.2,23.7h-0.3c-0.7,0-1.3-0.6-1.3-1.3v-0.5c0-0.7,0.6-1.3,1.3-1.3h0.3c0.7,0,1.3,0.6,1.3,1.3v0.5
		C40.5,23.1,39.9,23.7,39.2,23.7z"/>
	<path class="st0" d="M39.1,12.2h-0.2c-0.8,0-1.4-0.6-1.4-1.4v-0.4c0-0.8,0.6-1.4,1.4-1.4h0.2c0.8,0,1.4,0.6,1.4,1.4v0.4
		C40.5,11.6,39.9,12.2,39.1,12.2z"/>
</g>
</svg>
