<?xml version="1.0" encoding="utf-8"?>
<!-- Generator: Adobe Illustrator 19.0.0, SVG Export Plug-In . SVG Version: 6.00 Build 0)  -->
<svg version="1.1" id="Capa_1" xmlns="http://www.w3.org/2000/svg" xmlns:xlink="http://www.w3.org/1999/xlink" x="0px" y="0px"
	 viewBox="-457 259 44 44" style="enable-background:new -457 259 44 44;" xml:space="preserve">
<style type="text/css">
	.st0{fill:#0000CD;}
</style>
<g>
	<g id="calendar_1_">
		<path class="st0" d="M-420,267h-4.9v-2.2c0-0.6-0.5-1.1-1.1-1.1c-0.6,0-1.1,0.5-1.1,1.1v2.3h-6.8v-2.3c0-0.6-0.5-1.1-1.1-1.1
			c-0.6,0-1.2,0.4-1.2,1.1v2.3h-6.8v-2.3c0-0.6-0.5-1.1-1.1-1.1c-0.6,0-1.2,0.4-1.2,1.1v2.3h-4.9c-1.7,0-3,1.4-3,3V297
			c0,1.7,1.4,3,3,3h30.3c1.7,0,3-1.4,3-3V270C-416.9,268.4-418.3,267-420,267z M-419.1,296.9c0,0.4-0.3,0.8-0.8,0.8h-30.2
			c-0.4,0-0.8-0.3-0.8-0.8V270c0-0.4,0.3-0.8,0.8-0.8h4.9v2.3c0,0.6,0.5,1.1,1.1,1.1s1.1-0.5,1.1-1.1v-2.3h6.8v2.3
			c0,0.6,0.5,1.1,1.1,1.1s1.1-0.5,1.1-1.1v-2.3h6.8v2.3c0,0.6,0.5,1.1,1.1,1.1s1.1-0.5,1.1-1.1v-2.3h4.9c0.4,0,0.8,0.3,0.8,0.8v26.8
			H-419.1z"/>
		<rect x="-445.3" y="277.3" class="st0" width="4.5" height="3.4"/>
		<rect x="-445.3" y="282.9" class="st0" width="4.5" height="3.4"/>
		<rect x="-445.3" y="288.5" class="st0" width="4.5" height="3.4"/>
		<rect x="-437.4" y="288.5" class="st0" width="4.5" height="3.4"/>
		<rect x="-437.4" y="282.9" class="st0" width="4.5" height="3.4"/>
		<rect x="-437.4" y="277.3" class="st0" width="4.5" height="3.4"/>
		<rect x="-429.4" y="288.5" class="st0" width="4.5" height="3.4"/>
		<rect x="-429.4" y="282.9" class="st0" width="4.5" height="3.4"/>
		<rect x="-429.4" y="277.3" class="st0" width="4.5" height="3.4"/>
	</g>
</g>
</svg>
