<?xml version="1.0" encoding="utf-8"?>
<!-- Generator: Adobe Illustrator 19.0.0, SVG Export Plug-In . SVG Version: 6.00 Build 0)  -->
<svg version="1.1" id="Layer_1" xmlns="http://www.w3.org/2000/svg" xmlns:xlink="http://www.w3.org/1999/xlink" x="0px" y="0px"
	 viewBox="0 0 22 21" style="enable-background:new 0 0 22 21;" xml:space="preserve">
<style type="text/css">
	.st0{fill-rule:evenodd;clip-rule:evenodd;fill:#D21F26;}
	.st1{fill-rule:evenodd;clip-rule:evenodd;fill:#48C3E4;}
	.st2{fill-rule:evenodd;clip-rule:evenodd;fill:#00B9E0;}
</style>
<path id="XMLID_24_" class="st0" d="M13.2,0.7c1,0.1,1.5,0.9,1.1,1.8c-0.4,0.9-1.5,1.5-2.5,1.4c-1-0.2-1.5-1-1.1-1.9
	C11.1,1.2,12.2,0.6,13.2,0.7z"/>
<path id="XMLID_22_" class="st1" d="M10.8,6.9c1,0.2,1.6,1.2,1.2,2.3c-0.4,1.1-1.7,1.8-2.8,1.6c-1.1-0.3-1.5-1.4-1-2.4
	C8.6,7.4,9.8,6.7,10.8,6.9z"/>
<path id="XMLID_20_" class="st1" d="M4.1,12.1c1,0.3,1.5,1.5,0.9,2.7c-0.6,1.3-2,2.1-3.1,1.7c-1.1-0.3-1.4-1.6-0.7-2.8
	C1.7,12.5,3,11.8,4.1,12.1z"/>
<path id="XMLID_18_" class="st1" d="M10.6,15.1c1.2,0.3,1.8,1.7,1.3,3.1c-0.5,1.5-2,2.3-3.3,1.9c-1.3-0.4-1.7-1.9-1.2-3.3
	C8,15.6,9.4,14.8,10.6,15.1z"/>
<path id="XMLID_16_" class="st1" d="M17.9,10.1c1.2,0.3,2,1.4,1.6,2.7c-0.4,1.3-1.7,2.1-3,1.8c-1.3-0.3-1.9-1.6-1.5-2.8
	C15.4,10.5,16.7,9.8,17.9,10.1z"/>
<path id="XMLID_14_" class="st1" d="M4.5,6.2c0.9,0.2,1.3,1.1,0.8,2.2c-0.5,1-1.8,1.7-2.8,1.5c-1-0.2-1.3-1.2-0.7-2.3
	C2.4,6.6,3.6,6,4.5,6.2z"/>
<path id="XMLID_12_" class="st1" d="M19.6,3.6c1.1,0.2,1.9,1.1,1.6,2.1c-0.3,1.1-1.5,1.8-2.7,1.5C17.2,7,16.6,6,17,5
	C17.3,4,18.5,3.4,19.6,3.6z"/>
<path id="XMLID_10_" class="st2" d="M11.3,1.1c1,0.1,1.4,0.9,1.1,1.8c-0.4,0.9-1.5,1.5-2.5,1.4c-1-0.2-1.4-1-1-1.9
	C9.2,1.6,10.3,1,11.3,1.1z"/>
</svg>
